HIERARCHY
ROOT Hips
{
  OFFSET 1.44925e-005 102.336 -0.101585
  CHANNELS 6 Xposition Yposition Zposition Zrotation Xrotation Yrotation
  JOINT LeftUpLeg
  {
    OFFSET 8.9458 -8.66707 0.101652
    CHANNELS 3 Zrotation Xrotation Yrotation
    JOINT LeftLeg
    {
      OFFSET 0 -44.4227 1.3727
      CHANNELS 3 Zrotation Xrotation Yrotation
      JOINT LeftFoot
      {
        OFFSET -0.253549 -42.0924 -1.46059
        CHANNELS 3 Zrotation Xrotation Yrotation
        JOINT LeftToes
        {
          OFFSET -0.04 -4.41509 8.4991
          CHANNELS 3 Zrotation Xrotation Yrotation
          End Site
          {
            OFFSET 0.08 -0.047448 9.77979
          }
        }
      }
    }
  }
  JOINT Spine
  {
    OFFSET 0 11.8905 0
    CHANNELS 3 Zrotation Xrotation Yrotation
    JOINT Spine1
    {
      OFFSET 0 25.6574 0.127663
      CHANNELS 3 Zrotation Xrotation Yrotation
      JOINT RightShoulder
      {
        OFFSET -8.99 -0.362252 -0.22
        CHANNELS 3 Zrotation Xrotation Yrotation
        JOINT RightArm
        {
          OFFSET -10.2827 -0.00338 0.322123
          CHANNELS 3 Zrotation Xrotation Yrotation
          JOINT RightForeArm
          {
            OFFSET -26.364 0.099144 -1.42434
            CHANNELS 3 Zrotation Xrotation Yrotation
            JOINT RightHand
            {
              OFFSET -22.0324 0.085362 1.02216
              CHANNELS 3 Zrotation Xrotation Yrotation
              End Site
              {
                OFFSET -13.3284 -0.6 1.50291
              }
            }
          }
        }
      }
      JOINT LeftShoulder1
      {
        OFFSET 8.99 -0.362252 -0.22
        CHANNELS 3 Zrotation Xrotation Yrotation
        JOINT LeftArm
        {
          OFFSET 10.2827 -0.00337999 0.322123
          CHANNELS 3 Zrotation Xrotation Yrotation
          JOINT LeftForeArm
          {
            OFFSET 26.2597 0.099144 -1.42434
            CHANNELS 3 Zrotation Xrotation Yrotation
            JOINT LeftHand
            {
              OFFSET 22.0902 0.085362 1.02216
              CHANNELS 3 Zrotation Xrotation Yrotation
              End Site
              {
                OFFSET 13.419 -0.6 1.50291
              }
            }
          }
        }
      }
      JOINT Head
      {
        OFFSET 0 8.73416 0.011341
        CHANNELS 3 Zrotation Xrotation Yrotation
        End Site
        {
          OFFSET -0.29 12.7742 2.51395
        }
      }
    }
  }
  JOINT RightUpLeg
  {
    OFFSET -8.9458 -8.66707 0.101652
    CHANNELS 3 Zrotation Xrotation Yrotation
    JOINT RightLeg
    {
      OFFSET 0 -44.4227 1.3727
      CHANNELS 3 Zrotation Xrotation Yrotation
      JOINT RightFoot
      {
        OFFSET 0.253549 -42.0924 -1.46059
        CHANNELS 3 Zrotation Xrotation Yrotation
        JOINT RightToes
        {
          OFFSET 0.04 -4.41509 8.4991
          CHANNELS 3 Zrotation Xrotation Yrotation
          End Site
          {
            OFFSET -0.08 -0.137448 9.77979
          }
        }
      }
    }
  }
}
MOTION
Frames:	7
Frame Time:	0.0333333
23.2001 98.2306 6.39611 -9.37155 -4.89378 -94.6279 -7.37031 -11.1095 0.988103 -0.891557 23.2406 23.709 -0.714183 -9.05506 0.0308612 -1.34284e-009 8.7522e-006 -1.47388e-008 -14.1364 12.046 -0.161604 7.47736 -0.363116 -3.44393 37.3696 1.84942 0.246378 35.9415 -29.895 2.11051 19.7718 58.6577 -15.6306 -11.4267 9.52045 -1.3432 -28.3395 1.96663 -2.20401 -46.4966 -19.1893 -68.6982 -20.9822 51.1518 11.1585 5.82328 9.61819 -0.917488 -0.0535147 -5.26079 3.38111 -6.49009 -8.0735 5.09886 -2.42394 74.0229 -8.56394 14.8905 -6.67803 -0.300889 0.0462048 0.000530889 0.662642 
21.0732 98.6864 6.65519 -9.06951 -4.82442 -94.5462 -7.33609 -9.69047 0.830326 -1.26418 22.628 23.6382 -1.2986 -10.0503 0.0181737 -1.34284e-009 8.7522e-006 -1.47388e-008 -16.5407 13.8541 -0.918063 10.2022 -2.19191 -5.03639 37.225 1.83224 0.219698 28.2553 -26.787 -12.2842 17.5193 56.2475 -11.6617 -10.8999 9.52995 -1.23762 -25.3987 1.61378 -1.60153 -45.256 -21.2962 -75.362 -16.9036 48.529 5.93655 5.82328 9.61819 -0.917488 -0.164721 -5.60998 6.21657 -5.87587 -15.5608 5.47913 -6.52817 83.8427 -5.27406 13.8587 -8.03777 -0.127724 0.0462048 0.000530889 0.662642 
19.0378 99.0485 6.93588 -8.98632 -4.12334 -94.1815 -6.85106 -8.13461 1.047 -1.2281 22.3135 22.9531 -1.30353 -11.5596 0.0101017 -1.34284e-009 8.7522e-006 -1.47388e-008 -17.0717 15.6092 -1.95184 11.538 -3.40261 -6.4979 36.7233 1.79769 0.18421 22.1338 -24.0379 -24.2964 13.8842 53.3773 -5.66418 -9.76582 9.56648 -1.18681 -22.0306 1.22005 -0.790351 -45.3782 -24.0941 -81.1244 -12.9275 46.1761 0.89986 5.82328 9.61819 -0.917488 0.000831015 -6.24343 8.66366 -4.81452 -22.4645 5.17336 -153.195 88.3831 140.439 13.6184 -10.0914 0.10602 0.0462048 0.000530889 0.662642 
17.0218 99.2296 7.2204 -9.18064 -3.17959 -94.3787 -6.21798 -6.56219 1.57099 -0.982932 22.5221 22.7233 -1.00072 -13.0964 0.0160034 -1.34284e-009 8.7522e-006 -1.47388e-008 -16.4809 16.7353 -2.85825 11.6146 -3.49037 -7.5104 35.607 1.76498 0.207542 16.7004 -23.5499 -34.0862 11.4318 49.8758 -2.54133 -8.75718 9.62107 -1.44848 -18.441 0.816509 0.243483 -47.087 -26.8137 -86.2498 -9.12592 43.4546 -3.90674 5.82328 9.61819 -0.917488 0.437985 -7.08253 10.7928 -3.23826 -28.9842 5.31765 -173.803 83.003 160.282 13.3639 -11.5171 0.260126 0.0462048 0.000530889 0.662642 
14.9555 99.4103 7.47613 -9.48916 -2.29123 -94.83 -5.64558 -4.96084 2.24449 -0.747703 22.8374 22.6761 -0.644536 -14.2224 0.0335881 -1.34284e-009 8.7522e-006 -1.47388e-008 -15.6566 17.2279 -3.65215 11.4156 -2.87277 -8.24332 34.2111 1.74368 0.285544 11.4992 -23.966 -41.8857 9.94821 45.9723 -1.60678 -9.09531 9.64153 -1.90234 -15.2467 0.462372 1.40891 -48.8835 -28.988 -90.4759 -6.26516 39.5892 -7.87546 5.82328 9.61819 -0.917488 1.02631 -7.70062 12.5238 -1.53717 -34.7835 5.66425 -175.642 79.7821 161.657 13.2788 -13.1219 0.438558 0.0462048 0.000530889 0.662642 
12.8369 99.6596 7.70939 -9.74871 -1.42522 -95.0698 -5.07836 -3.19836 2.83913 -0.510389 22.8055 22.4322 -0.511422 -15.3538 0.0429024 -1.34284e-009 8.7522e-006 -1.47388e-008 -14.4147 17.3999 -4.38362 10.9978 -2.18967 -8.71704 33.2058 1.73175 0.353023 7.38845 -23.634 -47.6847 9.08264 42.9378 -1.31388 -10.2026 9.62809 -2.16182 -12.612 0.190228 2.5357 -50.124 -30.2017 -93.8313 -4.61369 35.7537 -10.6824 5.82328 9.61819 -0.917488 1.62241 -8.01217 13.4468 -0.186984 -39.7445 5.46538 -175.914 78.832 161.4 13.8586 -14.998 0.687945 0.0462048 0.000530889 0.662642 
10.658 99.908 7.92291 -9.83367 -0.485851 -95.2485 -4.44376 -1.24622 3.2616 -0.265203 22.2175 22.2391 -0.773219 -16.6706 0.0239844 -1.34284e-009 8.7522e-006 -1.47388e-008 -12.597 17.3054 -4.95978 10.1025 -1.65984 -8.80708 32.7355 1.72386 0.37967 5.24916 -22.5319 -51.4348 8.63719 41.5997 -0.784989 -10.3427 9.62831 -2.21091 -10.4179 -0.00297294 3.5189 -50.817 -30.4015 -96.2132 -3.38618 33.5065 -13.0239 5.82328 9.61819 -0.917488 2.08619 -8.1458 13.5629 0.920643 -44.084 4.78815 -175.409 79.7295 159.99 14.278 -16.2945 0.873321 0.0462048 0.000530889 0.662642 
